<?xml version="1.0" encoding="UTF-8"?>
<svg id="_レイヤー_1" data-name="レイヤー_1" xmlns="http://www.w3.org/2000/svg" version="1.1" viewBox="0 0 612 111.76">
  <!-- Generator: Adobe Illustrator 30.3.0, SVG Export Plug-In . SVG Version: 2.1.3 Build 157)  -->
  <defs>
    <style>
      .st0 {
        fill: #3e3a39;
      }
    </style>
  </defs>
  <path class="st0" d="M7.43,24.34h11.31v6.93c5.29-5.33,11.89-8,19.8-8,6.87,0,12.36,2.02,16.46,6.06,4.1,4.04,6.15,9.43,6.15,16.18v39.48h-11.31v-40.35c0-3.58-1.1-6.38-3.31-8.4-2.21-2.02-5.31-3.03-9.31-3.03-5.54,0-10,1.73-13.4,5.18-3.39,3.46-5.09,8-5.09,13.62v32.98H7.43V24.34Z"/>
  <path class="st0" d="M96.81,66.31h22.92v18.68h-22.92v-18.68Z"/>
  <path class="st0" d="M211.37,39.58h-11.81c-.46-4.71-4.12-7.06-10.99-7.06-8.12,0-12.18,2.52-12.18,7.56,0,4.25,2.83,6.91,8.49,8,11.08,2.17,18.11,4.1,21.11,5.81,5.46,3.16,8.18,7.89,8.18,14.18,0,5.71-2.4,10.13-7.18,13.27-4.79,3.14-11.56,4.72-20.3,4.72-7.66,0-13.6-1.45-17.8-4.34-4.21-2.89-6.31-7.01-6.31-12.34h11.87c.42,2.96,1.66,5.05,3.72,6.28,2.06,1.23,5.36,1.84,9.9,1.84,4.29,0,7.78-.81,10.46-2.44s4.03-3.73,4.03-6.31-.73-4.46-2.19-5.62c-1.46-1.17-4.31-2.14-8.56-2.94-10.37-1.96-17.47-4.31-21.3-7.06-3.83-2.75-5.75-6.87-5.75-12.37,0-11.66,8.64-17.49,25.92-17.49,6.62,0,11.74,1.26,15.37,3.78,3.62,2.52,5.43,6.07,5.43,10.65,0,.37-.04,1-.12,1.87Z"/>
  <path class="st0" d="M266.71,59.32l19.55-34.98h11.87l-37.79,69.4c-4.29,7.91-10.1,11.87-17.43,11.87h-4.68v-10.06h4.56c2.33,0,4.04-.96,5.12-2.87l1.12-1.94,11.62-20.49-26.8-45.91h14.37l18.49,34.98Z"/>
  <path class="st0" d="M365.4,39.58h-11.81c-.46-4.71-4.12-7.06-10.99-7.06-8.12,0-12.18,2.52-12.18,7.56,0,4.25,2.83,6.91,8.49,8,11.08,2.17,18.11,4.1,21.11,5.81,5.46,3.16,8.18,7.89,8.18,14.18,0,5.71-2.4,10.13-7.18,13.27-4.79,3.14-11.56,4.72-20.3,4.72-7.66,0-13.6-1.45-17.8-4.34-4.21-2.89-6.31-7.01-6.31-12.34h11.87c.41,2.96,1.66,5.05,3.72,6.28,2.06,1.23,5.36,1.84,9.9,1.84,4.29,0,7.78-.81,10.46-2.44s4.03-3.73,4.03-6.31-.73-4.46-2.19-5.62c-1.46-1.17-4.31-2.14-8.56-2.94-10.37-1.96-17.47-4.31-21.3-7.06-3.83-2.75-5.75-6.87-5.75-12.37,0-11.66,8.64-17.49,25.92-17.49,6.62,0,11.74,1.26,15.37,3.78,3.62,2.52,5.43,6.07,5.43,10.65,0,.37-.04,1-.12,1.87Z"/>
  <path class="st0" d="M419.12,6.16v17.49h22.8v9.87h-22.8v31.73c0,3.46.77,6.13,2.31,8.03,1.54,1.9,3.73,2.84,6.56,2.84,2.08,0,4.47-.47,7.15-1.41s4.94-2.07,6.78-3.4v11.18c-3.62,2.37-8.35,3.56-14.18,3.56-6.5,0-11.44-1.86-14.83-5.59-3.39-3.73-5.09-9.17-5.09-16.33v-30.61h-12.55v-9.87h12.55v-14.3l11.31-3.19Z"/>
  <path class="st0" d="M523.49,57.13h-41.97l-.06,2.12c0,4.96,1.69,9.01,5.06,12.15,3.37,3.14,7.68,4.72,12.93,4.72,4.46,0,7.6-1.41,9.43-4.25h12.43c-.42,4.58-2.58,8.09-6.5,10.52s-9.33,3.65-16.24,3.65c-9.29,0-16.5-2.76-21.64-8.28-5.14-5.52-7.71-13.25-7.71-23.2,0-8.37,2.21-15.57,6.62-21.61,4.71-6.37,11.81-9.56,21.3-9.56,8.7,0,15.3,2.56,19.8,7.68s6.75,12.64,6.75,22.55c0,.67-.06,1.83-.19,3.5ZM511.5,47.26c0-4.16-1.32-7.53-3.97-10.09s-6.13-3.84-10.46-3.84-7.85,1.26-10.68,3.78c-2.83,2.52-4.48,5.9-4.93,10.15h30.04Z"/>
  <path class="st0" d="M543.61,24.34h11.31v4.62c3.96-3.79,8.31-5.68,13.05-5.68,2.5,0,4.42.32,5.78.97,1.35.65,2.76,1.93,4.22,3.84,3.29-3.21,7.56-4.81,12.8-4.81,4.21,0,7.56,1.44,10.06,4.31s3.75,6.68,3.75,11.43v45.97h-11.31v-45.97c0-4.62-1.94-6.93-5.81-6.93-5.16,0-7.75,4.02-7.75,12.06v40.85h-11.31v-46.28c0-4.41-1.94-6.62-5.81-6.62-5.12,0-7.68,3.91-7.68,11.74v41.16h-11.31V24.34Z"/>
</svg>